<?xml version="1.0" encoding="utf-8"?>
<!-- Generator: Adobe Illustrator 15.0.2, SVG Export Plug-In . SVG Version: 6.00 Build 0)  -->
<!DOCTYPE svg PUBLIC "-//W3C//DTD SVG 1.1//EN" "http://www.w3.org/Graphics/SVG/1.1/DTD/svg11.dtd" [
	<!ENTITY st0 "fill-rule:evenodd;clip-rule:evenodd;fill:#FFFFFF;">
]>
<svg version="1.1" id="Layer_1" xmlns="http://www.w3.org/2000/svg" xmlns:xlink="http://www.w3.org/1999/xlink" x="0px" y="0px"
	 width="16px" height="16px" viewBox="0 0 16 16" style="enable-background:new 0 0 16 16;" xml:space="preserve">
<path style="&st0;" d="M15.91,6.52l-2.13,1.53l2.11,1.51l-0.62,1.9l-2.62-0.02l0.82,2.46l-1.62,1.18l-2.06-1.52l-0.77,2.44h-2
	l-0.8-2.54l-2.14,1.58l-1.62-1.17l0.83-2.49L0.7,11.38l-0.62-1.9l2.14-1.53L0.11,6.44l0.62-1.9l2.62,0.02L2.53,2.1l1.62-1.18
	l2.11,1.56l0.78-2.47h2l0.79,2.5l2.09-1.54l1.62,1.18l-0.83,2.49l2.59-0.02L15.91,6.52z M8.04,5.04c-1.64,0-2.97,1.33-2.97,2.97
	s1.33,2.97,2.97,2.97s2.97-1.33,2.97-2.97S9.68,5.04,8.04,5.04z"/>
</svg>
